<?xml version="1.0" encoding="utf-8"?>
<!-- Generator: Adobe Illustrator 25.0.1, SVG Export Plug-In . SVG Version: 6.00 Build 0)  -->
<svg version="1.1" id="Layer_1" xmlns="http://www.w3.org/2000/svg" xmlns:xlink="http://www.w3.org/1999/xlink" x="0px"
	y="0px" viewBox="0 0 16 20">
	<g class="a">
		<path
			d="M21.164,5.122h-3.7a3.944,3.944,0,0,0-7.737,0h-3.7a.435.435,0,0,0-.435.435V20.687a.435.435,0,0,0,.435.435h15.13a.435.435,0,0,0,.435-.435V5.556a.435.435,0,0,0-.435-.435ZM13.6,2.813a3.078,3.078,0,0,1,2.974,2.308H10.624A3.078,3.078,0,0,1,13.6,2.813Zm7.13,17.439H6.468V5.991H9.654V7.786a.435.435,0,0,0,.87,0V5.991h6.15V7.786a.435.435,0,0,0,.87,0V5.991h3.186Z"
			transform="translate(-5.599 -1.944)"></path>
	</g>
</svg>