<?xml version="1.0" encoding="utf-8"?>
<!-- Generator: Adobe Illustrator 25.0.1, SVG Export Plug-In . SVG Version: 6.00 Build 0)  -->
<svg version="1.1" id="Layer_1" xmlns="http://www.w3.org/2000/svg" xmlns:xlink="http://www.w3.org/1999/xlink" x="0px" y="0px"
	 viewBox="0 0 437.1 447.2" style="enable-background:new 0 0 437.1 447.2;" xml:space="preserve">
<path d="M346.6,150.6c14.4,5.1,21.1-1.5,24.3-7.9c1.9-3.7,2.3-7,2.4-8.3l0,0c0-0.4-0.2-0.6-0.3-0.6c-0.2,0-0.4,0.2-0.6,0.5
	c-1,1.8-4.3,4.7-7.5,3.8c-2.8-0.8-4.4-3.4-4.7-7.3c0.1-5,1.2-12.3,2.1-17.5c2.1-11.2,3.2-11.4,3.9-11.5c2.8-0.3,3.6,2.6,4.2,4.6
	c0.1,0.5,0.3,1.2,0.5,1.6c0.5-1.1,1.3-4.1,1.8-8.2c0-0.6-1.8-2.2-2.6-3c-0.6-0.6-1.2-1.1-1.6-1.6c-0.8-0.9-0.5-1.9-0.2-2.8
	c0.1-0.2,0.1-0.5,0.2-0.8c0.1-0.3,0.2-0.6,0.3-0.8c0.3-0.8,0.4-1.1-0.4-2.1c-1.3-1.6-8.9-8.7-10.3-9.9c-0.1-0.1-0.2-0.1-0.4-0.2
	l-0.5,2.5c-0.2,0.7-0.3,1.5-1.1,1.8c-0.8,0.3-1.5-0.1-2-0.5c-0.7-0.5-1.3-1-1.9-1.4c-1.2-0.9-2.3-1.7-2.9-2c0,0,0,0.1,0,0.1
	c-0.6,2.1-2.2,8.4-2.6,10.4c-0.1,0.9,0,1.1,0,1.1c0.3,0.3,2-0.2,2.6-0.4c0.8-0.2,1.4-0.4,2-0.4c0.2,0,0.5,0,0.7,0.1
	c2.9,1.2,2.7,3.9,2,6.6c-0.4,1.4-2.2,6.3-4.5,12.5c-2.8,7.5-6,16.1-7.1,19.9C340.2,135.9,338.2,147.7,346.6,150.6z"/>
<path d="M342.6,74.8c0.4-1.4-2.9-3.5-6.1-5.3l0,0c-1.6-0.9-3.1-2.1-2.1-5.1c0.3-0.9,0.6-1.6,0.9-2.2c0.1-0.4,0.3-0.7,0.4-1
	c0.2-0.6,0.2-1-1.4-2.2c-1.5-1.1-11.6-7.1-14.3-8.6c-1-0.5-1.9-0.7-2.4-0.5c-0.4,0.2-0.7,0.6-0.8,1.3c-0.5,2.2-0.8,3.1-1,3.8
	c-0.1,0.3-0.2,0.6-0.3,1.1c-0.3,1-0.9,1.4-1.3,1.6c-1.8,0.7-4.5-0.8-9-3.3c-2.1-1.2-4.5-2.5-7.1-3.8c-0.3-0.1-0.6-0.4-1.1-0.6
	c-0.7-0.4-2.8-1.7-3.6-1.7c0,0.2,0,0.8,0.5,1.9l0.1,0.3c1.5,3.9,3.3,8.8,3.2,18.5c0,2,0.9,3.5,1.6,3.7c0.2,0.1,0.2,0,0.4-0.1
	c0.8-0.9,2.2-1.2,3.9-1.2c2.5,0,5.4,0.8,7,1.6c2.2,1.1,2.4,2.2,2.2,3c-0.1,0.4-0.5,1.7-1.1,3.7c-2.7,8.9-10,32.5-12.8,51.9
	c-1.5,9.8-0.4,16.9,3.3,21c2.8,3.2,7,4.7,13,4.5c3,0,8-1.1,12.6-3.8c3.6-2.1,8-6,8.9-12.6c1.7-7,1.2-14.1,0.8-16.2
	c-0.2-1.4-0.7-2.1-0.9-2.3c-0.1,0.1-0.5,0.5-0.8,1.5c-0.9,2.4-3.4,3.9-6.2,3.5c-2.6-0.3-5.8-2.5-6.2-7.3l0-0.1l0-0.1
	c0.8-11.2,3.7-26.3,5.3-34.3l0.1-0.5c0.4-2.1,1.3-3.5,2.5-4c0.8-0.3,1.7-0.2,2.5,0.4c1.1,0.8,2,2.2,3,3.7c0.5,0.8,1.1,1.8,1.5,2
	c0.5,0.4,0.7,0.4,0.7,0.4c0,0,0.2-0.1,0.4-0.7c0.4-1.2,0.8-2.6,1.3-4C341.1,79.8,342.1,76.7,342.6,74.8z"/>
<path d="M374.9,143.7c-0.2-0.3-0.3-0.7-0.5-1c-0.6,1.4-1.2,4.6-0.7,8.2c0.5,3.3,2.4,7.8,8,10.5c3.3,1.6,6.4,1.8,9.2,0.7
	c3-1.3,7.4-5,10.7-15.2l0.1-0.2c0.1-0.4,0.3-0.9,0.5-1.4c0.5-1.4,1.3-3.3,0.9-4.3c-0.7-1.5-3.7-6.6-4.9-8.4c0,0.1,0,0.2,0,0.4
	c0.1,1.1-0.8,5.3-3,7c-1,0.8-2.2,1-3.5,0.5c-0.5-0.2-1.2-0.6-1.6-1.7c-1.2-3,0.7-9.2,2-11.8c0.1-0.2,0.2-0.5,0.4-0.7
	c0.8-1.5,1.2-2.3,0.5-3.4c-2.5-4-8-12.1-10.5-14.3l0,0c-0.2-0.1-0.3-0.2-0.3-0.2c0,0-0.1,0.1-0.1,0.3c-0.1,0.4-0.1,0.8,0.1,1.2
	c1,1.9,0.3,4.8-0.5,7.8c-0.1,0.6-0.3,1.2-0.4,1.8c-0.1,0.5-0.4,1.2-0.7,2.2c-1.7,4.8-5.8,16-0.4,22.2c2.7,3.1,5.5,3.8,7.3,3.8
	c0,0,0,0,0,0c1.9,0,3.6-0.7,4.6-1.8l1.6,1.2c-1.3,2.2-4.9,8.1-12.4,4.3C377.6,149.4,376,146,374.9,143.7z"/>
<path d="M208,263.3c3.6,1.2,7.8,0.2,9.6-2.5c0.7-1,1.2-4.5,1.9-8.9c1.7-11.2,4.9-32.2,16.9-53.5c1-1.8,2.5-3.6,4.1-5.6
	c2.8-3.4,5.9-7.3,5.2-9.8c-0.4-1.2-1.8-2.2-4.1-3c-11.8-3.7-24.7-11.9-39.5-46.5c-2.9-6.8-23-59.6-17.6-69.1c0.6-1,1.4-1.6,2.5-1.8
	c5-0.7,5.8,4.6,6.4,8.8c0.6,4,1,6.4,2.9,6.2l0,0c3.2-0.3,4.2-3.4,6-9.7c2.4-8.8,6-22,21.4-34.7c5.8-4.8,6.2-7.1,5.9-8
	c-0.9-2.6-8.6-3.1-13.8-3.3l-0.8-0.1c-2-0.1-4-0.2-5.9-0.2c-40.5,0-61.4,23.7-70.6,34.1c-2,2.3-3.5,3.9-4.6,4.7c-3.1,2-8.9,2.5-15,3
	c-6.7,0.6-14.3,1.3-16.3,4.1c-0.5,0.7-0.6,1.6-0.4,2.7c1.2,4.9,5.2,5.9,11.2,7.5c4.7,1.3,10.6,2.9,17,6.9
	c13.9,8.8,33.6,25.1,48.5,53.4c14.9,28.3,21.4,61.6,19.2,99.3C197,257.3,204.7,262.1,208,263.3z"/>
<path d="M168.9,319.4c0.4-0.2,1-0.7,1-1.6c0.8-9.2,4.9-20.9,7.5-25.4c1.2-2.1,1.3-2.8,1.2-3.1c0-0.1-0.3-0.2-0.6-0.3
	c-10.5-2.4-18.7,5.4-24.1,10.6c-2.4,2.3-4,3.9-5.4,4.1c-2.1,0.4-3,0-3.9-0.4c-0.8-0.3-1.5-0.7-3.6-0.7c-0.8,0-1.9,0.2-2.2,1.2
	c-0.4,1.2,0.4,3.3,2.5,4.9c5.2,3.9,8.3,11.1,9.1,21.3c1.3,15.5-1.8,19.5-3.1,21.2c-0.1,0.2-0.3,0.4-0.3,0.4c-0.1,0.5,0,1,0.2,1.3
	c0.2,0.3,0.9,0.4,1.3,0.4c0.2,0,0.4,0,0.5,0.1c0.5,0,1.1,0,1.7-0.1c1.4-0.1,3-0.2,4.6-0.2c3.4,0,7,0.3,8.9,1.9
	c2,1.6,2.6,1.3,2.6,1.3c1.4-0.8-0.3-10.4-1-14c-1.3-7.3-3-12.6-4.4-16.8c-1.5-4.6-2.7-8.2-2.5-12c0.1-2.6,1.2-3.5,1.8-3.8
	c0.8-0.4,1.6-0.3,2.4,0.3c1,0.7,1.5,2.1,1.2,3.6c-0.4,2.8,0.4,5.2,1.8,5.6l0.2,0.1C167.2,319.8,168.2,319.8,168.9,319.4z"/>
<path d="M91.3,313.6c-6.8,10-5.5,28.3,3.9,55.8c7.5,22,25.7,37.1,54.1,45.1c7.7,2.2,14,1.1,18.4-3c5.4-5,7.4-14.5,5.3-24.7
	c-0.2-0.8-0.4-1.8-0.5-2.8c-1.6-8.7-4.6-24.8-16.8-24.8c0,0,0,0,0,0c-11.6,0-23.9,0.5-26.3,4.1c-0.3,0.5-0.7,1.3-0.1,3
	c1.1,2.9,3.1,3.6,5.4,4.5c2.7,1,5.7,2.1,7.1,7c1.4,4.8-0.6,6.8-2,7.5c-3.9,2.2-11.3-0.8-17.1-7C112,367,105.6,344.7,110,334.8
	c1.7-3.8,4.8-5.7,9-5.6c5.2,0.2,8.6,2.9,10,8c0.2,0.9,0.4,1.8,0.6,2.6c1.1,5,1.7,7.7,9.5,7.3c2.4-0.1,4.1-0.9,5.2-2.4
	c2.8-3.7,1.6-11.5,0.1-18.6c-1.3-6.3-9.4-24-28.2-22.8C106.9,303.8,96.7,305.4,91.3,313.6z"/>
<path d="M402.4,305.5c0.2-0.1,0.8-0.6,1.8-2.6c7.3-14,18.4-63.8,17.3-67l-0.1-0.2v-0.2c-0.9-13.8-10.6-56.5-43-71.4
	c-29-13.4-42.7-5.4-50.5,1.8l-0.8,0.8l-0.7-0.9c-0.1-0.1-1.9-2.6-6.4-3.3c-10.3-1.8-24.7,0.6-28.9,1.3c-3.3,0.6-4.7,3.6-4.5,6.3
	c0.2,2.1,1.6,4.6,5,4.5h0.2l0.2,0.1c24,8.4,38.4,47.6,46.2,79c9.7,38.9,13.3,80.6,12.5,104.6c-0.2,3.5-1.1,7.3-1.8,10.6
	c-0.7,3.1-1.7,7.8-1,8.5c0.1,0,1.4,0.2,7.5-5.6c17-16.2,38.4-42.4,38-47.9c-4-51.8-15.5-86.4-22.5-107c-4.5-13.4-6.7-20.1-4.2-23
	c1.6-1.7,4.4-1.3,6.4-0.9c11.3,2.5,18.4,29.3,22.4,51.3c4.6,25,6.2,50,5.6,55.5C401.7,304.1,402.2,305.2,402.4,305.5z"/>
<path d="M183.8,252c6.6-17.3,7.2-37.3,1.9-59.6l0-0.1c-4.6-30.3-16.5-56.3-35.4-77.3c-14.2-15.7-32.6-28.3-50.5-34.5
	c-6-2.1-13-3.6-18.4-3.6c-3.3,0-6,0.6-7.5,2c-0.6,0.6-1.3,1.2-2.2,2c-6.7,6.1-20.7,18.7-33.1,41.2c-15.4,28-23.3,61.7-23.3,100.3
	c2.4,30.5,7.5,57.5,15.1,80.3c7.2,21.5,16.4,38.3,27.2,50c17.6,19.5,33.7,33.8,36.6,32.6c0.2-0.1,0.3-0.5,0.2-1.3
	c-0.1-1.5-1-3-2.5-5.4c-5.3-8.6-16.2-26.5-22.6-93.9l-0.2-2.4l1.9,1.6c22.4,18.8,56.7,20.5,83.2,4.1
	C167.8,279.5,178.1,267.1,183.8,252z M109.5,172.4c-1.3,8.4-3.9,15.2-6.9,18.5l0,0c-3.5,3.7-8.3,5.8-12.7,5.8c-1.8,0-3.6-0.3-5.2-1
	c-5.3-2.3-8.1-7.9-7.7-15.4c1.5-29,15.6-49.9,15.8-50.1l0.4-0.6l0.7,0.2c7.2,2.1,12.3,8.1,14.8,17.4
	C110.6,154.3,110.9,163.4,109.5,172.4z"/>
<path d="M221,46.1c-9.6,13.6-19.2,39-10.3,82.8c3.7,17.9,12.6,31.9,25.2,39.5c8.6,5.2,18.3,6.8,26.6,4.4c10-2.9,18.7-10.5,24.7-21.5
	c7.3-13.5,9.1-29.7,4.8-43.5l0,0c-0.3-0.9-0.5-1.2-0.6-1.3c-0.2,0.1-1,0.8-2.2,4.1c-1.5,4.1-6.3,8.4-12.7,11.3
	c-7.1,3.2-14.8,4.2-21.6,2.7c-11.5-2.5-17.5-8.7-20.5-13.5c-3.2-5.2-3.7-9.8-3.7-10l-0.3-3.5l2.1,2.8c0.1,0.1,7.7,9.8,23.2,10.6
	c13.5,0.8,23.3-2.4,29.2-9.5c7.6-9,9-24.4,4.2-45.6c-6.4-27.9-29.8-30.1-36.8-30.1c-1.2,0-2,0.1-2,0.1C242.2,27.1,230.3,33,221,46.1
	z M253.1,43.2c1.8-2.5,3.9-3.9,5.9-4.1l0.1,0l0.1,0c0.1,0,3.7,0.3,4.9,5.4c2.6,11.3,0.7,17.1-1.4,19.9c-1.5,2-3.6,3.3-5.9,3.5
	c-0.1,0-0.2,0-0.3,0c-2.4,0-6.4-2.4-7.3-6.3C247.6,54.8,250.1,47.3,253.1,43.2z"/>
<path d="M204.7,270.7L204.7,270.7c-2.9,0-6.5,2.1-10.2,6c-11.7,12.3-22.8,39.9-21.2,74.1c1.3,27.9,7.4,48.4,18.2,60.8
	c7.7,8.9,17.6,13.6,29.4,13.8c9.7,0.3,17.5-3.1,22.4-9.7c7.1-9.4,8-24.8,2.5-42.4c-4.1-13.3-6.2-14.8-6.9-14.8h0
	c-0.8,0-1.8,1.8-2,6.7c-0.3,7.3-5.7,13.5-14.4,16.6c-9.5,3.5-23.8,0.5-32.8-19l-1.9-4.2l3.5,3c0.2,0.1,16.9,14.3,32,4
	c11.5-7.9,10.9-40.5,3-66C220.6,281.6,212.5,270.7,204.7,270.7z M213.1,312.9c-0.6,4.2-2.9,6.5-6.3,6.5c-0.2,0-0.3,0-0.5,0
	c-2.5-0.2-4.6-1.8-5.8-4.7c-2.8-6.6-1.1-19.2,2.1-23.1c1.1-1.3,2.2-1.4,2.9-1.2l0,0C209.7,291.4,214.3,305.1,213.1,312.9z"/>
<path d="M249.7,191.3c-18.6,22.7-24.6,64.6-16.4,115.1c8.3,51.3,22.9,84.8,42.4,96.9c8.9,5.5,18.8,6.7,29.4,3.5
	c39.2-11.9,43.7-59.1,34.8-99.3l0,0c-1.6-7.3-3-8.7-3.3-8.9c-1.8,0.8-2.7,5.2-4.3,12.5c-0.4,1.6-0.7,3.4-1.2,5.3
	c-2.5,11.2-16.9,25-31.7,25.9c-9.7,0.6-23.1-3.8-31.8-28.3l-1.7-4.7l3.4,3.7c0.8,0.9,20.9,22.5,48,2.8c8-5.8,12.7-18.1,13.4-34.6
	c0.6-15.5-2.3-34-8.1-50.8c-8.8-25.5-26.3-52.4-49.2-52.4c-0.4,0-0.7,0-1.1,0C264.6,178.2,256.6,182.9,249.7,191.3z M280.4,213.5
	c2.1-3,4-3.4,5.3-3.2c6.4,0.9,13.6,18.2,12.9,30.9c-0.5,8.7-4.7,13.5-11.8,13.7c-0.1,0-0.2,0-0.3,0c-4,0-7.1-2-9.1-5.8
	C272.2,239.3,275.5,220.6,280.4,213.5z"/>
</svg>
